Coordinates
version=1
nRows=21
nColumns=33
inDegrees=yes

Units are S.I. units (second, meters, Newtons, ...)
Angles are in degrees.

endheader
time	ground_thorax_rot_x	ground_thorax_rot_y	ground_thorax_rot_z	ground_thorax_tx	ground_thorax_ty	ground_thorax_tz	clav_prot_r	clav_elev_r	scapula_abduction_r	scapula_elevation_r	scapula_upward_rot_r	scapula_winging_r	shoulder_elv_r	plane_of_elev_r	axial_rot_r	elbow_flexion_r	pro_sup_r	wrist_flex_r	wrist_dev_r	clav_prot_l	clav_elev_l	scapula_abduction_l	scapula_elevation_l	scapula_upward_rot_l	scapula_winging_l	shoulder_elv_l	plane_of_elev_l	axial_rot_l	elbow_flexion_l	pro_sup_l	wrist_flex_l	wrist_dev_l	
3.8400	2.067973	4.046710	12.232065	-0.121574	1.037022	0.028882	3.503595	11.509595	15.727704	7.588919	22.145685	-9.695060	8.384880	-73.553328	53.800216	49.366708	-65.983844	69.999999	20.465460	11.677527	-4.736085	-18.101639	-21.733563	-45.094584	-0.119339	62.875151	-38.917840	-4.488836	69.037173	25.104644	1.331359	-25.000000	
3.8500	1.868609	4.071522	12.385262	-0.121923	1.036403	0.028856	3.657389	11.156683	15.834932	7.414600	21.761218	-9.663667	8.231602	-73.588212	53.484530	49.472105	-66.766490	69.999998	21.002301	11.782425	-4.297655	-18.228610	-22.077451	-44.938412	-0.086426	62.486356	-38.537480	-4.603085	68.665545	24.644940	-0.536977	-25.000000	
3.8600	1.660299	4.099295	12.539669	-0.122247	1.035838	0.028832	3.814019	10.776933	15.929861	7.228571	21.343706	-9.622029	8.090146	-73.612986	53.140427	49.587130	-67.570001	69.999997	21.540613	11.891824	-3.858989	-18.363213	-22.420678	-44.780920	-0.049675	62.086882	-38.142041	-4.702904	68.252052	24.162164	-2.503736	-24.999999	
3.8700	1.543528	4.120886	12.655081	-0.122459	1.035410	0.028873	3.885646	10.539261	15.943146	7.111136	21.088057	-9.582562	8.062002	-73.585914	52.927246	49.680562	-67.945758	69.999994	21.760070	11.950578	-3.682521	-18.437851	-22.550147	-44.700475	-0.021838	61.885945	-37.903696	-4.713656	67.995838	23.892628	-3.597772	-24.999999	
3.8800	1.474631	4.142100	12.746386	-0.122589	1.035078	0.028952	3.909639	10.373783	15.903233	7.030022	20.910880	-9.539817	8.122506	-73.529414	52.780624	49.784972	-68.035121	69.999989	21.745128	11.988935	-3.654246	-18.493602	-22.558987	-44.665064	0.007621	61.794147	-37.748129	-4.670520	67.818172	23.730221	-4.237389	-24.999998	
3.8900	1.447923	4.171128	12.810306	-0.122658	1.034806	0.029066	3.894174	10.270946	15.808635	6.985639	20.787019	-9.489677	8.312851	-73.460674	52.690791	49.961454	-67.794981	69.999980	21.441257	12.028467	-3.757339	-18.569827	-22.464376	-44.680009	0.053690	61.796603	-37.658172	-4.589357	67.720923	23.643418	-4.517269	-24.999997	
3.9000	1.439450	4.208835	12.853488	-0.122678	1.034572	0.029202	3.855687	10.194313	15.673280	6.959198	20.678861	-9.430182	8.623949	-73.393347	52.640515	50.225145	-67.193458	69.999964	20.781830	12.085852	-3.922993	-18.687750	-22.321581	-44.723744	0.121548	61.837538	-37.596676	-4.488582	67.666112	23.573137	-4.644188	-24.999994	
3.9100	1.424857	4.257960	12.879325	-0.122682	1.034321	0.029335	3.806555	10.114156	15.506920	6.935307	20.555984	-9.359231	9.097494	-73.348490	52.655011	50.640608	-65.959307	69.999936	19.428494	12.193690	-4.075913	-18.894589	-22.188380	-44.769140	0.229026	61.839503	-37.523862	-4.383457	67.636536	23.443477	-4.789260	-24.999990	
3.9200	1.398248	4.315391	12.892108	-0.122652	1.034064	0.029457	3.736199	10.029228	15.306450	6.905991	20.438513	-9.279067	9.724362	-73.328908	52.768874	51.180006	-63.813557	69.999885	17.114986	12.346002	-4.194250	-19.174419	-22.079341	-44.801086	0.369086	61.793085	-37.442857	-4.278000	67.640317	23.254865	-4.921320	-24.999982	
3.9300	1.342518	4.405522	12.912477	-0.122633	1.033759	0.029533	3.626866	9.907486	15.012370	6.860431	20.280755	-9.163885	10.772183	-73.368901	53.183298	52.052761	-59.309419	69.999793	12.122151	12.625638	-4.223738	-19.656610	-22.018724	-44.771938	0.606059	61.524499	-37.320029	-4.124230	67.665779	22.867450	-5.046983	-24.999967	
3.9400	1.265468	4.530647	12.915275	-0.122558	1.033518	0.029621	3.440603	9.749253	14.585716	6.784876	20.124427	-9.008262	12.115132	-73.444101	53.767108	53.111538	-52.623184	69.999630	4.987568	12.960653	-4.242460	-20.234081	-21.963948	-44.740020	0.887115	61.238146	-37.194251	-3.966652	67.744970	22.405279	-5.129358	-24.999941	
3.9500	1.175686	4.679502	12.900729	-0.122443	1.033347	0.029720	3.199378	9.563660	14.065989	6.686371	19.970148	-8.824046	13.680554	-73.545689	54.474525	54.320160	-44.258548	69.999337	-3.763527	13.337486	-4.258318	-20.883738	-21.909357	-44.707523	1.201904	60.944766	-37.063524	-3.805819	67.879345	21.882168	-5.168523	-24.999894	
3.9600	1.099068	4.818942	12.846707	-0.122252	1.033306	0.029869	2.938307	9.394568	13.549925	6.581579	19.874487	-8.650070	15.097997	-73.626341	55.037777	55.402875	-36.198638	69.998812	-11.796247	13.645981	-4.343598	-21.431796	-21.819970	-44.732370	1.465563	60.865884	-36.965837	-3.699161	68.093211	21.474206	-5.148766	-24.999811	
3.9700	1.047465	4.933078	12.781843	-0.122056	1.033316	0.030023	2.727097	9.253075	13.128916	6.495034	19.790878	-8.506831	16.391992	-73.701782	55.484585	56.436816	-28.991761	69.997871	-18.819015	13.927490	-4.455175	-21.934834	-21.711504	-44.765818	1.709523	60.829468	-36.871469	-3.590132	68.351648	21.075293	-5.086470	-24.999662	
3.9800	1.035059	4.999050	12.692372	-0.121813	1.033427	0.030220	2.579568	9.173108	12.860279	6.436470	19.772950	-8.420749	17.279315	-73.730752	55.609938	57.201236	-24.140685	69.996188	-23.068406	14.093353	-4.645375	-22.252073	-21.560257	-44.851903	1.864516	61.015963	-36.810426	-3.523070	68.662861	20.829799	-4.972098	-24.999394	
3.9900	1.049914	5.008657	12.605377	-0.121570	1.033535	0.030403	2.527720	9.160082	12.787418	6.417038	19.800404	-8.402228	17.840831	-73.722749	55.537748	57.811259	-21.556747	69.993167	-25.000000	14.198370	-4.827694	-22.457240	-21.413690	-44.922814	1.968711	61.227947	-36.738754	-3.436701	68.994161	20.616688	-4.817549	-24.998915	
4.0000	1.076761	4.976782	12.522175	-0.121314	1.033635	0.030578	2.541530	9.206796	12.863941	6.427418	19.884080	-8.439121	18.110737	-73.666759	55.309052	58.288922	-20.919630	69.987771	-25.000000	14.247919	-4.994744	-22.560257	-21.278744	-44.979333	2.025697	61.482959	-36.646581	-3.335347	69.333807	20.441486	-4.632351	-24.998056	
4.0100	1.101187	4.935584	12.464659	-0.121084	1.033660	0.030720	2.593854	9.278108	13.008564	6.456757	19.971532	-8.498413	18.418338	-73.610659	55.130088	58.884254	-20.590386	69.978065	-25.000000	14.335761	-5.097898	-22.709609	-21.174048	-44.974374	2.109057	61.595738	-36.496454	-3.166468	69.661039	20.131837	-4.401894	-24.996521	
4.0200	1.115213	4.903516	12.416156	-0.120836	1.033711	0.030883	2.631326	9.352614	13.142475	6.480965	20.081946	-8.558356	18.737746	-73.532246	54.943604	59.514131	-20.324954	69.960789	-25.000000	14.424914	-5.206766	-22.859042	-21.061925	-44.964479	2.193437	61.745546	-36.320593	-2.984741	69.978795	19.781040	-4.106168	-24.993762	
4.0300	1.121114	4.877301	12.370063	-0.120582	1.033772	0.031064	2.660652	9.424170	13.276298	6.496660	20.209274	-8.620674	19.075823	-73.431354	54.751101	60.179363	-20.111835	69.929535	-24.999999	14.518369	-5.326185	-23.013606	-20.937658	-44.949583	2.281838	61.930179	-36.118690	-2.789394	70.293419	19.372596	-3.717707	-24.988841	
4.0400	1.123217	4.858344	12.338189	-0.120344	1.033857	0.031242	2.702998	9.471911	13.432629	6.496275	20.322659	-8.685905	19.458198	-73.318643	54.563618	60.864638	-19.928170	69.874411	-24.999999	14.624996	-5.475469	-23.190104	-20.785537	-44.935943	2.382868	62.143545	-35.900628	-2.576041	70.596881	18.829816	-3.121818	-24.979971	
